<svg xmlns="http://www.w3.org/2000/svg" width="900" height="286" viewBox="0 0 900 286" role="img" aria-label="Current focus: AI systems, computer vision, generative AI, agents, Linux, cloud, games and system design"><title>Current focus: AI systems, computer vision, generative AI, agents, Linux, cloud, games and system design</title><defs><pattern id="grid" width="32" height="32" patternUnits="userSpaceOnUse"><path d="M32 0H0V32" fill="none" stroke="#12222f" stroke-width=".7"/></pattern><linearGradient id="fade"><stop stop-color="#48dcff" stop-opacity=".18"/><stop offset="1" stop-color="#48dcff" stop-opacity="0"/></linearGradient></defs><rect width="100%" height="100%" rx="16" fill="#080d14"/><rect x=".5" y=".5" width="899" height="285" rx="16" fill="url(#grid)" stroke="#213748"/><text x="28" y="37" font-family="Consolas, monospace" font-size="14" fill="#91a7b9" font-weight="500" >CURRENT FOCUS / EXPLORATION MAP</text><circle cx="866" cy="31" r="4" fill="#6cf5b0" class="pulse"/><rect x="28" y="60" width="409" height="39" rx="5" fill="#0d1822" stroke="#213748"/><text x="44" y="86" font-family="Consolas, monospace" font-size="19" fill="#48dcff" font-weight="600" >AI SYSTEMS</text><rect x="465" y="60" width="409" height="39" rx="5" fill="#0d1822" stroke="#213748"/><text x="481" y="86" font-family="Consolas, monospace" font-size="19" fill="#48dcff" font-weight="600" >COMPUTER VISION</text><rect x="28" y="111" width="409" height="39" rx="5" fill="#0d1822" stroke="#213748"/><text x="44" y="137" font-family="Consolas, monospace" font-size="19" fill="#48dcff" font-weight="600" >GENERATIVE AI</text><rect x="465" y="111" width="409" height="39" rx="5" fill="#0d1822" stroke="#213748"/><text x="481" y="137" font-family="Consolas, monospace" font-size="19" fill="#48dcff" font-weight="600" >AGENTIC SYSTEMS</text><rect x="28" y="162" width="409" height="39" rx="5" fill="#0d1822" stroke="#213748"/><text x="44" y="188" font-family="Consolas, monospace" font-size="19" fill="#6cf5b0" font-weight="600" >LINUX</text><rect x="465" y="162" width="409" height="39" rx="5" fill="#0d1822" stroke="#213748"/><text x="481" y="188" font-family="Consolas, monospace" font-size="19" fill="#6cf5b0" font-weight="600" >CLOUD</text><rect x="28" y="213" width="409" height="39" rx="5" fill="#0d1822" stroke="#213748"/><text x="44" y="239" font-family="Consolas, monospace" font-size="19" fill="#6cf5b0" font-weight="600" >GAME DEVELOPMENT</text><rect x="465" y="213" width="409" height="39" rx="5" fill="#0d1822" stroke="#213748"/><text x="481" y="239" font-family="Consolas, monospace" font-size="19" fill="#6cf5b0" font-weight="600" >SYSTEM DESIGN</text></svg>