<svg xmlns="http://www.w3.org/2000/svg" width="900" height="290" viewBox="0 0 900 290" role="img" aria-label="Ashoka Cooling Point: APPLIANCE-SERVICE BOOKING SYSTEM"><title>Ashoka Cooling Point: APPLIANCE-SERVICE BOOKING SYSTEM</title><desc>Project module 05. Prototype, source inspected. The diagram is illustrative and does not show live activity or performance metrics.</desc><defs><pattern id="grid" width="32" height="32" patternUnits="userSpaceOnUse"><path d="M32 0H0V32" fill="none" stroke="#12222f" stroke-width=".7"/></pattern></defs><rect width="100%" height="100%" rx="16" fill="#080d14"/><rect x=".5" y=".5" width="899" height="289" rx="16" fill="url(#grid)" stroke="#213748"/><g font-family="Consolas, monospace"><text x="30" y="37" font-size="13" fill="#91a7b9">MODULE 05 / PROJECT DIRECTORY</text><circle cx="592" cy="32" r="4" fill="#ab9cff" class="pulse"/><text x="606" y="37" font-size="12" fill="#ab9cff" font-weight="600">PROTOTYPE / SOURCE INSPECTED</text></g><line x1="30" y1="53" x2="870" y2="53" stroke="#213748"/><text x="30" y="110" font-family="Segoe UI, Arial, sans-serif" font-size="43" fill="#eaf5ff" font-weight="700">Ashoka Cooling Point</text><text x="32" y="146" font-family="Consolas, monospace" font-size="15" fill="#ab9cff" font-weight="600">APPLIANCE-SERVICE BOOKING SYSTEM</text><text x="32" y="204" font-family="Consolas, monospace" font-size="16" fill="#91a7b9">REACT  /  TYPESCRIPT  /  SUPABASE</text><g fill="#ab9cff" stroke="#ab9cff"><rect x="698" y="85" width="65" height="58" rx="8" fill-opacity=".06" stroke-opacity=".5" class="tile"/><rect x="777" y="85" width="65" height="58" rx="8" fill-opacity=".06" stroke-opacity=".5" class="tile delay"/><rect x="698" y="156" width="65" height="58" rx="8" fill-opacity=".06" stroke-opacity=".5" class="tile delay2"/><rect x="777" y="156" width="65" height="58" rx="8" fill-opacity=".06" stroke-opacity=".5" class="tile delay"/><g fill="none" stroke-width="1.6" stroke-linecap="round" stroke-linejoin="round"><rect x="711" y="101" width="38" height="22" rx="3"/><path d="M716 117H744M721 129v4m10-4v4m10-4v4"/><rect x="798" y="98" width="24" height="34" rx="3"/><path d="M798 112H822M804 104v3m0 12v5"/><rect x="716" y="168" width="29" height="34" rx="3"/><circle cx="730.5" cy="188" r="8"/><path d="M716 175H745"/><rect x="795" y="171" width="30" height="27" rx="3"/><path d="M795 179H825M802 168v6m15-6v6m-15 13 5 5 11-10"/></g><path d="M764 114H775M730 144V155M809 144V155M764 184H775" fill="none" stroke-opacity=".4" stroke-dasharray="2 3"/></g><line x1="30" y1="237" x2="870" y2="237" stroke="#213748"/><path d="M30 237H870" fill="none" stroke="#ab9cff" opacity=".55" class="flow"/><text x="30" y="268" font-family="Consolas, monospace" font-size="12" fill="#91a7b9">SOURCE / ARCHITECTURE / IMPLEMENTATION BELOW</text></svg>
