<svg xmlns="http://www.w3.org/2000/svg" width="900" height="290" viewBox="0 0 900 290" role="img" aria-label="RazorRecover: POLICY-GUIDED PAYMENT RECOVERY"><title>RazorRecover: POLICY-GUIDED PAYMENT RECOVERY</title><desc>Project module 04. Prototype, source inspected. The diagram is illustrative and does not show live activity or performance metrics.</desc><defs><pattern id="grid" width="32" height="32" patternUnits="userSpaceOnUse"><path d="M32 0H0V32" fill="none" stroke="#12222f" stroke-width=".7"/></pattern></defs><rect width="100%" height="100%" rx="16" fill="#080d14"/><rect x=".5" y=".5" width="899" height="289" rx="16" fill="url(#grid)" stroke="#213748"/><g font-family="Consolas, monospace"><text x="30" y="37" font-size="13" fill="#91a7b9">MODULE 04 / PROJECT DIRECTORY</text><circle cx="592" cy="32" r="4" fill="#8af0b9" class="pulse"/><text x="606" y="37" font-size="12" fill="#8af0b9" font-weight="600">PROTOTYPE / SOURCE INSPECTED</text></g><line x1="30" y1="53" x2="870" y2="53" stroke="#213748"/><text x="30" y="110" font-family="Segoe UI, Arial, sans-serif" font-size="48" fill="#eaf5ff" font-weight="700">RazorRecover</text><text x="32" y="146" font-family="Consolas, monospace" font-size="15" fill="#8af0b9" font-weight="600">POLICY-GUIDED PAYMENT RECOVERY</text><text x="32" y="204" font-family="Consolas, monospace" font-size="16" fill="#91a7b9">FASTAPI  /  GEMINI  /  STREAMLIT</text><g fill="none" stroke="#8af0b9"><path d="M720 105H803Q820 105 820 124V148Q820 167 802 167H743Q720 167 720 189" stroke-opacity=".24" stroke-width="2"/><path d="M720 105H803Q820 105 820 124V148Q820 167 802 167H743Q720 167 720 189" stroke-width="1.5" class="flow"/><rect x="697" y="83" width="46" height="44" rx="9" fill="#0e1e20"/><rect x="797" y="127" width="46" height="44" rx="9" fill="#0e1e20"/><rect x="697" y="169" width="46" height="44" rx="9" fill="#0e1e20"/><path d="M708 98H732M708 105H726M708 112H723" stroke-width="2"/><path d="M810 139H830V150L820 159 810 150Z" stroke-width="1.5"/><path d="m813 147 5 5 9-10" stroke-width="1.8"/><path d="M711 188a10 10 0 1 1 1 11M706 187l5 2 2-6" stroke-width="1.5"/><circle cx="763" cy="105" r="3" fill="#8af0b9" class="pulse"/></g><line x1="30" y1="237" x2="870" y2="237" stroke="#213748"/><path d="M30 237H870" fill="none" stroke="#8af0b9" opacity=".55" class="flow"/><text x="30" y="268" font-family="Consolas, monospace" font-size="12" fill="#91a7b9">SOURCE / ARCHITECTURE / IMPLEMENTATION BELOW</text></svg>
